<svg width="554" height="235" viewBox="0 0 554 235" fill="none" xmlns="http://www.w3.org/2000/svg">
<path d="M357.252 105.234C324.41 9.16835 209.064 3.87363 158 0H554V235C502.101 231.772 390.093 201.3 357.252 105.234Z" fill="#416788" fill-opacity="0.6"/>
<path d="M420.847 81.5006C398.621 7.10059 320.559 3 286 0H554V182C518.877 179.5 443.073 155.901 420.847 81.5006Z" fill="#ADD8E6" fill-opacity="0.6"/>
<rect x="474.992" y="52.3867" width="10.4079" height="53.0803" transform="rotate(-90 474.992 52.3867)" fill="white"/>
<path d="M475.408 27.4082C469.66 27.4082 465 22.7484 465 17.0003V17.0003L537.855 17.0003V17.0003C537.855 22.7484 533.196 27.4082 527.447 27.4082L475.408 27.4082Z" fill="white"/>
<rect x="476.657" y="64.043" width="10.4079" height="48.9172" transform="rotate(-90 476.657 64.043)" fill="white"/>
<path fill-rule="evenodd" clip-rule="evenodd" d="M525.574 53.8418H510.379V130.917L525.574 136.999V53.8418Z" fill="white"/>
<path fill-rule="evenodd" clip-rule="evenodd" d="M508.713 53.8418H493.518V124.168L508.713 130.251V53.8418Z" fill="white"/>
<path fill-rule="evenodd" clip-rule="evenodd" d="M491.852 53.8418H476.657V117.42L491.852 123.502V53.8418Z" fill="white"/>
<circle cx="501.428" cy="34.6934" r="5.41211" fill="white"/>
<path d="M487.285 33.167C489.447 35.3292 490.343 37.939 489.286 38.996C488.229 40.053 485.619 39.1571 483.457 36.9948C481.295 34.8325 479.491 30.9267 479.904 29.4451C481.674 29.2297 485.123 31.0047 487.285 33.167Z" fill="white"/>
<path d="M519.063 36.9945C516.901 39.1567 514.291 40.0527 513.234 38.9957C512.177 37.9387 513.073 35.3289 515.235 33.1667C517.397 31.0044 521.303 29.2004 522.785 29.6135C523 31.3831 521.225 34.8322 519.063 36.9945Z" fill="white"/>
</svg>
