<svg width="554" height="235" viewBox="0 0 554 235" fill="none" xmlns="http://www.w3.org/2000/svg">
<path d="M103.941 64.5C67.3036 47.3 18.584 45.3333 0 45V235H529.762C542.503 235 555.244 224.5 553.903 221C551.891 215.5 545.821 218.7 503.609 219.5C450.844 220.5 405.197 214 350.441 206.5C295.684 199 234.954 176.5 197.123 135C159.291 93.5 149.737 86 103.941 64.5Z" fill="#416788" fill-opacity="0.6"/>
<path opacity="0.3" d="M133.891 189.234C30.0771 169.117 31.6941 162.244 0 149V149.503V235L554 234.497V164.088C494.493 170.29 359.954 184.607 309.503 192.251C259.051 199.896 155.227 193.76 133.891 189.234Z" fill="#ADD8E6" fill-opacity="0.6"/>
</svg>
